<svg width="30" height="30" viewBox="0 0 30 30" fill="none" xmlns="http://www.w3.org/2000/svg">
<circle cx="15" cy="15" r="15" fill="#95E1E1"/>
<path d="M18.8906 20H12.1162V18.7832L14.6934 16.1924C15.4544 15.4131 15.958 14.8617 16.2041 14.5381C16.4548 14.21 16.637 13.9023 16.751 13.6152C16.8649 13.3281 16.9219 13.0205 16.9219 12.6924C16.9219 12.2412 16.7852 11.8857 16.5117 11.626C16.2428 11.3662 15.8691 11.2363 15.3906 11.2363C15.0078 11.2363 14.6364 11.307 14.2764 11.4482C13.9209 11.5895 13.5085 11.8447 13.0391 12.2139L12.1709 11.1543C12.7269 10.6849 13.2669 10.3522 13.791 10.1562C14.3151 9.96029 14.8734 9.8623 15.4658 9.8623C16.3955 9.8623 17.1406 10.1061 17.7012 10.5938C18.2617 11.0768 18.542 11.7285 18.542 12.5488C18.542 13 18.46 13.4284 18.2959 13.834C18.1364 14.2396 17.888 14.6589 17.5508 15.0918C17.2181 15.5202 16.6621 16.1012 15.8828 16.835L14.1465 18.5166V18.585H18.8906V20Z" fill="white"/>
</svg>
