<svg width="30" height="30" viewBox="0 0 30 30" fill="none" xmlns="http://www.w3.org/2000/svg">
<circle cx="15" cy="15" r="15" fill="#95E1E1"/>
<path d="M18.5146 12.3027C18.5146 12.9362 18.3301 13.4648 17.9609 13.8887C17.5918 14.3079 17.0723 14.5905 16.4023 14.7363V14.791C17.2044 14.8913 17.806 15.1419 18.207 15.543C18.6081 15.9395 18.8086 16.4681 18.8086 17.1289C18.8086 18.0905 18.4691 18.8333 17.79 19.3574C17.111 19.877 16.1449 20.1367 14.8916 20.1367C13.7842 20.1367 12.8499 19.9567 12.0889 19.5967V18.168C12.5127 18.3776 12.9616 18.5394 13.4355 18.6533C13.9095 18.7673 14.3652 18.8242 14.8027 18.8242C15.5775 18.8242 16.1562 18.6807 16.5391 18.3936C16.9219 18.1064 17.1133 17.6621 17.1133 17.0605C17.1133 16.5273 16.9014 16.1354 16.4775 15.8848C16.0537 15.6341 15.3883 15.5088 14.4814 15.5088H13.6133V14.2031H14.4951C16.0902 14.2031 16.8877 13.6517 16.8877 12.5488C16.8877 12.1204 16.7487 11.79 16.4707 11.5576C16.1927 11.3252 15.7826 11.209 15.2402 11.209C14.862 11.209 14.4974 11.2637 14.1465 11.373C13.7956 11.4779 13.3809 11.6852 12.9023 11.9951L12.1162 10.874C13.0322 10.1995 14.0964 9.8623 15.3086 9.8623C16.3158 9.8623 17.1019 10.0788 17.667 10.5117C18.2321 10.9447 18.5146 11.5417 18.5146 12.3027Z" fill="white"/>
</svg>
