<svg width="30" height="30" viewBox="0 0 30 30" fill="none" xmlns="http://www.w3.org/2000/svg">
<circle cx="15" cy="15" r="15" fill="#95E1E1"/>
<path d="M15.5068 13.7588C16.514 13.7588 17.3115 14.0254 17.8994 14.5586C18.4873 15.0918 18.7812 15.8187 18.7812 16.7393C18.7812 17.8057 18.4463 18.6396 17.7764 19.2412C17.111 19.8382 16.1631 20.1367 14.9326 20.1367C13.8161 20.1367 12.9388 19.9567 12.3008 19.5967V18.1406C12.6699 18.3503 13.0938 18.512 13.5723 18.626C14.0508 18.7399 14.4951 18.7969 14.9053 18.7969C15.6299 18.7969 16.1813 18.6351 16.5596 18.3115C16.9378 17.988 17.127 17.514 17.127 16.8896C17.127 15.6956 16.3659 15.0986 14.8438 15.0986C14.6296 15.0986 14.3652 15.1214 14.0508 15.167C13.7363 15.208 13.4606 15.2559 13.2236 15.3105L12.5059 14.8867L12.8887 10.0059H18.084V11.4346H14.3037L14.0781 13.9092C14.2376 13.8818 14.4313 13.8499 14.6592 13.8135C14.8916 13.777 15.1742 13.7588 15.5068 13.7588Z" fill="white"/>
</svg>
