<svg width="30" height="30" viewBox="0 0 30 30" fill="none" xmlns="http://www.w3.org/2000/svg">
<circle cx="15" cy="15" r="15" fill="#95E1E1"/>
<path d="M12.1436 15.7412C12.1436 11.8311 13.7363 9.87598 16.9219 9.87598C17.4232 9.87598 17.847 9.91471 18.1934 9.99219V11.332C17.847 11.2318 17.446 11.1816 16.9902 11.1816C15.9193 11.1816 15.1149 11.4688 14.5771 12.043C14.0394 12.6172 13.7477 13.5378 13.7021 14.8047H13.7842C13.9984 14.4355 14.2992 14.1507 14.6865 13.9502C15.0739 13.7451 15.5296 13.6426 16.0537 13.6426C16.9606 13.6426 17.667 13.9206 18.1729 14.4766C18.6787 15.0326 18.9316 15.7868 18.9316 16.7393C18.9316 17.7874 18.6377 18.6169 18.0498 19.2275C17.4665 19.8337 16.6689 20.1367 15.6572 20.1367C14.9417 20.1367 14.3197 19.9658 13.791 19.624C13.2624 19.2777 12.8545 18.7764 12.5674 18.1201C12.2848 17.4593 12.1436 16.6663 12.1436 15.7412ZM15.6299 18.8105C16.1813 18.8105 16.6051 18.6328 16.9014 18.2773C17.2021 17.9219 17.3525 17.4137 17.3525 16.7529C17.3525 16.1787 17.2113 15.7275 16.9287 15.3994C16.6507 15.0713 16.2314 14.9072 15.6709 14.9072C15.3245 14.9072 15.0055 14.9824 14.7139 15.1328C14.4222 15.2786 14.1921 15.4814 14.0234 15.7412C13.8548 15.9964 13.7705 16.2585 13.7705 16.5273C13.7705 17.1699 13.9437 17.7122 14.29 18.1543C14.641 18.5918 15.0876 18.8105 15.6299 18.8105Z" fill="white"/>
</svg>
