<svg width="30" height="30" viewBox="0 0 30 30" fill="none" xmlns="http://www.w3.org/2000/svg">
<circle cx="15" cy="15" r="15" fill="#95E1E1"/>
<path d="M15.4932 9.87598C16.4411 9.87598 17.1908 10.0947 17.7422 10.5322C18.2936 10.9652 18.5693 11.5462 18.5693 12.2754C18.5693 13.3008 17.9541 14.1165 16.7236 14.7227C17.5075 15.1146 18.0635 15.527 18.3916 15.96C18.7243 16.3929 18.8906 16.876 18.8906 17.4092C18.8906 18.234 18.5876 18.8949 17.9814 19.3916C17.3753 19.8883 16.555 20.1367 15.5205 20.1367C14.4359 20.1367 13.5951 19.9043 12.998 19.4395C12.401 18.9746 12.1025 18.3161 12.1025 17.4639C12.1025 16.9079 12.2575 16.4089 12.5674 15.9668C12.8818 15.5202 13.3945 15.1237 14.1055 14.7773C13.4948 14.4128 13.0596 14.0277 12.7998 13.6221C12.54 13.2165 12.4102 12.7607 12.4102 12.2549C12.4102 11.5303 12.695 10.9538 13.2646 10.5254C13.8343 10.0924 14.5771 9.87598 15.4932 9.87598ZM13.6406 17.4092C13.6406 17.8831 13.807 18.2523 14.1396 18.5166C14.4723 18.7764 14.9235 18.9062 15.4932 18.9062C16.0811 18.9062 16.5368 18.7718 16.8604 18.5029C17.1885 18.2295 17.3525 17.8604 17.3525 17.3955C17.3525 17.0264 17.2021 16.6891 16.9014 16.3838C16.6006 16.0785 16.1449 15.7959 15.5342 15.5361L15.3359 15.4473C14.7344 15.7116 14.3014 16.0033 14.0371 16.3223C13.7728 16.6367 13.6406 16.999 13.6406 17.4092ZM15.4795 11.1133C15.0238 11.1133 14.6569 11.2272 14.3789 11.4551C14.1009 11.6784 13.9619 11.9837 13.9619 12.3711C13.9619 12.6081 14.012 12.82 14.1123 13.0068C14.2126 13.1937 14.3584 13.3646 14.5498 13.5195C14.7412 13.6699 15.0648 13.8522 15.5205 14.0664C16.0674 13.8249 16.4525 13.5719 16.6758 13.3076C16.9036 13.0387 17.0176 12.7266 17.0176 12.3711C17.0176 11.9837 16.8763 11.6784 16.5938 11.4551C16.3158 11.2272 15.9443 11.1133 15.4795 11.1133Z" fill="white"/>
</svg>
