<svg width="30" height="30" viewBox="0 0 30 30" fill="none" xmlns="http://www.w3.org/2000/svg">
<circle cx="15" cy="15" r="15" fill="#95E1E1"/>
<path d="M18.877 14.2715C18.877 16.2402 18.4805 17.71 17.6875 18.6807C16.8945 19.6514 15.7005 20.1367 14.1055 20.1367C13.4993 20.1367 13.0641 20.1003 12.7998 20.0273V18.6807C13.2054 18.7946 13.6133 18.8516 14.0234 18.8516C15.1081 18.8516 15.917 18.5599 16.4502 17.9766C16.9834 17.3932 17.2751 16.4772 17.3252 15.2285H17.2432C16.9743 15.6387 16.6484 15.9349 16.2656 16.1172C15.8874 16.2995 15.443 16.3906 14.9326 16.3906C14.0485 16.3906 13.3535 16.1149 12.8477 15.5635C12.3418 15.012 12.0889 14.2555 12.0889 13.2939C12.0889 12.2503 12.3805 11.4209 12.9639 10.8057C13.5518 10.1859 14.3516 9.87598 15.3633 9.87598C16.0742 9.87598 16.694 10.0492 17.2227 10.3955C17.7513 10.7419 18.1592 11.2454 18.4463 11.9062C18.7334 12.5625 18.877 13.3509 18.877 14.2715ZM15.3906 11.209C14.8346 11.209 14.4085 11.3913 14.1123 11.7559C13.8161 12.1159 13.668 12.624 13.668 13.2803C13.668 13.8499 13.8047 14.2988 14.0781 14.627C14.3561 14.9505 14.7754 15.1123 15.3359 15.1123C15.8783 15.1123 16.334 14.9505 16.7031 14.627C17.0723 14.3034 17.2568 13.9251 17.2568 13.4922C17.2568 13.0866 17.1771 12.7083 17.0176 12.3574C16.8626 12.002 16.6439 11.7217 16.3613 11.5166C16.0788 11.3115 15.7552 11.209 15.3906 11.209Z" fill="white"/>
</svg>
